<?xml version="1.0" encoding="utf-8"?>
<!-- Generator: Adobe Illustrator 22.1.0, SVG Export Plug-In . SVG Version: 6.00 Build 0)  -->
<svg version="1.1" id="Layer_1" xmlns="http://www.w3.org/2000/svg" xmlns:xlink="http://www.w3.org/1999/xlink" x="0px" y="0px"
	 viewBox="0 0 100 100" style="enable-background:new 0 0 100 100;" xml:space="preserve">
<style type="text/css">
	.st0{fill:#FFFFFF;}
</style>
<g id="Instagram">
	<path class="st0" d="M76.9,69.3V30.8c0-4.2-3.4-7.7-7.7-7.7H30.7c-4.3,0-7.7,3.4-7.7,7.7v38.6c0,4.3,3.4,7.7,7.7,7.7h38.6
		C73.5,77,76.9,73.6,76.9,69.3 M60.4,50c0,5.8-4.7,10.4-10.4,10.4S39.6,55.7,39.6,50S44.2,39.6,50,39.6C55.7,39.6,60.4,44.3,60.4,50
		 M70.9,37.5c0,2.3-2.3,2.3-2.3,2.3h-6.1c-2.3,0-2.3-2.3-2.3-2.3v-6c0-2.3,2.3-2.3,2.3-2.3h6.1c2.3,0,2.3,2.3,2.3,2.3V37.5z
		 M70.9,68.4c0,2.5-2.5,2.5-2.5,2.5H31.6c-2.5,0-2.5-2.5-2.5-2.5V46c0-0.4,0.1-0.7,0.2-1H34c-0.5,1.6-0.8,3.2-0.8,5
		c0,9.3,7.5,16.8,16.8,16.8S66.8,59.3,66.8,50c0-1.8-0.3-3.4-0.8-5h4.7c0.2,0.5,0.2,1,0.2,1S70.9,68.4,70.9,68.4z"/>
	<path class="st0" d="M50,99C23,99,1,77,1,50S23,1,50,1s49,22,49,49S77,99,50,99z M50,7.5C26.6,7.5,7.5,26.6,7.5,50
		s19,42.5,42.5,42.5c23.4,0,42.5-19,42.5-42.5C92.5,26.6,73.4,7.5,50,7.5z"/>
</g>
</svg>
