<?xml version="1.0" encoding="utf-8"?>
<!-- Generator: Adobe Illustrator 22.1.0, SVG Export Plug-In . SVG Version: 6.00 Build 0)  -->
<svg version="1.1" id="Layer_1" xmlns="http://www.w3.org/2000/svg" xmlns:xlink="http://www.w3.org/1999/xlink" x="0px" y="0px"
	 viewBox="0 0 100 100" style="enable-background:new 0 0 100 100;" xml:space="preserve">
<style type="text/css">
	.st0{fill:#8A9197;}
</style>
<g id="Email">
	<path class="st0" d="M50,99C23,99,1,77,1,50C1,23,23,1,50,1s49,22,49,49C99,77,77,99,50,99z M50,7.5C26.6,7.5,7.5,26.6,7.5,50
		c0,23.4,19.1,42.5,42.5,42.5s42.5-19,42.5-42.5C92.5,26.6,73.4,7.5,50,7.5z"/>
	<path class="st0" d="M79.4,63V33.8L54.9,56.7c-4.9,4.3-9.8,0-9.8,0L20.6,33.8V63c0,0,0,6.5,6.5,6.5h45.7
		C72.9,69.5,79.4,69.5,79.4,63"/>
	<g>
		<path class="st0" d="M24.1,30.5c-2.3,0-2.8,1.2-1.1,2.8l23.9,21.6c1.7,1.5,4.5,1.5,6.1,0l23.8-21.6c1.7-1.5,1.2-2.8-1.1-2.8H24.1z
			"/>
	</g>
</g>
</svg>
