<?xml version="1.0" encoding="utf-8"?>
<!-- Generator: Adobe Illustrator 22.1.0, SVG Export Plug-In . SVG Version: 6.00 Build 0)  -->
<svg version="1.1" id="Layer_1" xmlns="http://www.w3.org/2000/svg" xmlns:xlink="http://www.w3.org/1999/xlink" x="0px" y="0px"
	 viewBox="0 0 100 100" style="enable-background:new 0 0 100 100;" xml:space="preserve">
<style type="text/css">
	.st0{fill:#FFFFFF;}
</style>
<g id="Facebook">
	<path class="st0" d="M40.9,84V50.9h-7.2V39.6h6.9v-0.1l0.1-0.1l0.2-12.1l0.1-0.7v-0.3l0.1-0.3c0-0.3,0.1-0.5,0.2-0.7
		c0.1-0.2,0.2-0.4,0.3-0.6c0.1-0.5,0.3-0.9,0.5-1.3s0.4-0.8,0.7-1.2c0.2-0.3,0.5-0.7,0.8-1s0.6-0.7,0.9-1V20l2.3-1.8
		c0.3-0.2,0.7-0.4,1.1-0.6c0.4-0.2,0.8-0.3,1.3-0.4l2.6-0.5h1.7l12.2,1H66L64.7,29l0,0L58,28.3h-0.2H57l-0.2,0.1L56,28.8
		c-0.2,0-0.3,0.1-0.4,0.2L55,29.6c-0.1,0.2-0.2,0.4-0.3,0.6s-0.2,0.4-0.2,0.6c-0.1,0.2-0.1,0.5-0.2,0.7c0,0.2,0,0.5,0,0.7l0.1,7.1
		l9.9,0.1l-1.4,11.3L54.3,51v33h-0.1H40.9z"/>
	<path class="st0" d="M50,99C23,99,1,77,1,50S23,1,50,1s49,22,49,49S77,99,50,99z M50,7.5C26.6,7.5,7.5,26.6,7.5,50
		s19,42.5,42.5,42.5c23.4,0,42.5-19,42.5-42.5C92.5,26.6,73.4,7.5,50,7.5z"/>
</g>
</svg>
