<?xml version="1.0" encoding="utf-8"?>
<!-- Generator: Adobe Illustrator 22.1.0, SVG Export Plug-In . SVG Version: 6.00 Build 0)  -->
<svg version="1.1" id="Layer_1" xmlns="http://www.w3.org/2000/svg" xmlns:xlink="http://www.w3.org/1999/xlink" x="0px" y="0px"
	 viewBox="0 0 100 100" style="enable-background:new 0 0 100 100;" xml:space="preserve">
<style type="text/css">
	.st0{fill:#FFFFFF;}
</style>
<g id="Phone">
	<path class="st0" d="M50,99C23,99,1,77,1,50S23,1,50,1s49,22,49,49S77,99,50,99z M50,7.5C26.6,7.5,7.5,26.6,7.5,50
		S26.6,92.5,50,92.5s42.5-19,42.5-42.5C92.5,26.6,73.4,7.5,50,7.5z"/>
	<path class="st0" d="M28.7,77.1c3.8,4.6,10.2,5.7,15,3l1.8-1.3c2.9-2.5,10.3-10.8,16.7-22.4c6.5-11.7,9.9-22.8,10.5-26.6
		c0-0.1,0.1-2.3,0.1-2.3c-0.2-5.5-4.6-10.3-10.5-11.2c-1.2-0.2-2.4-0.2-3.5,0l-7,19.3c1.8,1.9,4.2,3.2,7.1,3.7
		c-1.2,2.8-4.2,8.7-6.2,12.2c-1.7,3.2-4.7,8.1-6.3,10.4c-1.9-2.3-4.5-3.6-7.2-4.1L26.9,74.1C27.3,75.2,28,76.2,28.7,77.1"/>
</g>
</svg>
