<?xml version="1.0" encoding="utf-8"?>
<!-- Generator: Adobe Illustrator 22.1.0, SVG Export Plug-In . SVG Version: 6.00 Build 0)  -->
<svg version="1.1" id="Layer_1" xmlns="http://www.w3.org/2000/svg" xmlns:xlink="http://www.w3.org/1999/xlink" x="0px" y="0px"
	 viewBox="0 0 100 100" style="enable-background:new 0 0 100 100;" xml:space="preserve">
<style type="text/css">
	.st0{fill:#8A9197;}
</style>
<g id="Twitter">
	<path class="st0" d="M73.7,47.7c1.4,0.6,2.9,0.8,4.4,0.9H80c0.3,0,0.5-0.1,0.8-0.2c-1.1,1.3-2.5,2.1-4.1,2.5
		c-0.7,0.1-1.5,0.2-2.2,0.3c-0.4,0-0.8,0-1.2,0c-0.9,3.9-2.8,7.4-5.6,10.3c-1.5,1.5-3.1,2.9-4.8,4.1c-3.4,2.5-7.2,4.2-11.4,5.3
		c-4.3,1.1-8.7,1.4-13.1,0.8c-6.1-0.8-11.5-3.2-16.3-7.2c-1.9-1.5-3.5-3.3-4.9-5.2c2.3,2.2,5.1,3.7,8.3,4.2c1.7,0.3,3.3,0.4,5,0.2
		c2.6-0.2,4.9-1,7-2.4c1.2-0.8,2.3-1.7,3.3-2.7c-1.3,0.3-2.5,0.1-3.6-0.7c-0.4-0.4-0.7-0.9-0.8-1.5c-0.2-1,0.1-1.8,1-2.4
		c0.5-0.3,0.9-0.6,1.4-0.8c-2.2,0.3-4.2-0.3-5.8-1.6c-0.5-0.4-1-0.8-1.4-1.3c-0.2-0.3-0.4-0.6-0.6-0.9c0.8-0.9,1.8-1.4,2.9-1.5
		c0.5-0.1,1-0.2,1.5-0.2c-1.9-0.4-3.6-1.2-5.1-2.6c-0.8-0.7-1.4-1.6-1.7-2.7c-0.1-0.4-0.2-0.8-0.3-1.1l3.9-0.4
		c-1.8-0.9-3.3-2.2-4.4-3.9c0-0.1-0.1-0.1-0.1-0.2C27.2,36,26.9,35,26.8,34c0-0.3,0-0.7,0-1c5.6,2.1,11,4.6,16.2,7.3
		c0.8,0.4,1.5,0.9,2.2,1.4c0.9,0.8,1.8,1.5,2.7,2.3c1.2-3,2.6-5.9,4.2-8.6c0.8-1.4,1.7-2.7,2.8-3.8c0.9-1,1.9-2,2.9-2.9l-0.9,1.8
		c1.4-1.2,3.1-1.9,5-2.3c0,0.4-0.2,0.7-0.5,0.9l-0.3,0.3c-0.1,0.1-0.3,0.2-0.4,0.3c-0.2,0.1-0.3,0.2-0.5,0.2
		c-0.4,0.2-0.8,0.5-1.2,0.6c1-0.3,1.9-0.6,2.8-0.9c0.4-0.2,0.8-0.3,1.2-0.4c0.2,0,0.3,0,0.5,0c0.1,0,0.2-0.1,0.4-0.1
		c0.2,0,0.4,0.1,0.6,0.1l0.3,0.3c0.1,0.4-0.1,0.8-0.7,1.1c-0.6,0.3-1.1,0.5-1.7,0.7c-0.4,0.1-0.8,0.2-1.3,0.4
		c-0.6,0.2-1.2,0.4-1.8,0.6c2.7-0.2,5.2,0.5,7.5,1.9c1,0.7,1.9,1.5,2.8,2.4c1.5,1.8,2.6,3.8,3.2,6.2c0.1,0.5,0.2,1,0.4,1.5
		c1.7,0.4,3.4,0.5,5.2,0c0.5-0.2,1.1-0.4,1.6-0.6c0.2-0.1,0.5-0.2,0.7-0.3c-0.7,1.5-1.9,2.6-3.4,3.2c-0.7,0.3-1.4,0.5-2.2,0.6
		C74.5,47.5,74.1,47.6,73.7,47.7"/>
	<path class="st0" d="M50,99C23,99,1,77,1,50C1,23,23,1,50,1c27,0,49,22,49,49C99,77,77,99,50,99z M50,7.5C26.6,7.5,7.5,26.6,7.5,50
		c0,23.4,19,42.5,42.5,42.5c23.4,0,42.5-19,42.5-42.5C92.5,26.6,73.4,7.5,50,7.5z"/>
</g>
</svg>
