<?xml version="1.0" encoding="utf-8"?>
<!-- Generator: Adobe Illustrator 22.1.0, SVG Export Plug-In . SVG Version: 6.00 Build 0)  -->
<svg version="1.1" id="Layer_1" xmlns="http://www.w3.org/2000/svg" xmlns:xlink="http://www.w3.org/1999/xlink" x="0px" y="0px"
	 viewBox="0 0 50 50" style="enable-background:new 0 0 50 50;" xml:space="preserve">
<style type="text/css">
	.st0{fill:#FF8C06;}
</style>
<path class="st0" d="M29.1,30.2l-2,0.7l1.5,1.6l0.9-1.2L29.1,30.2z M49.5,25c0-13.5-11-24.5-24.5-24.5S0.5,11.5,0.5,25
	c0,10.9,7.2,20.1,17.1,23.2c-0.3-1.4-0.4-2.7-0.5-3.8c0-6.3-1.8-11.5-1.6-14.9c0.2-3.4,0.9-3.5,1.3-6.2c0.4-2.7,2.1-10.9,2.2-13.3
	c0.1-2.4-0.6-6-0.3-6.6c0.3-0.7,1-1,1.7-0.8c0.7,0.2,2.1,1.2,2.5,2.9c0.4,1.7,0.3,4.3,0.3,4.3s0.2,1.9,0.4,3.3
	c0.4-2.3,0.7-4.2,0.7-4.3c0-0.3,0.8-6.3,1.6-7C26.8,1,28.6,3,28.6,4.3c0,2.5-0.5,4.5-0.5,4.5s-0.3,7-0.8,8.5
	c-0.3,0.8-0.3,3.2-0.3,5.4c0.6-0.2,1.1-0.4,1.4-0.5c0.9-0.3,2.3-0.4,2.9,0.2c0.6,0.6,1.5,3.9,1.5,3.9s1.5-1.3,2.3-1.9
	c0.8-0.6,1.9-0.9,1.9-0.9s1.3-0.6,2.3,0.5c1,1.1,0.6,1.9,0.6,1.9s-0.6,2.5-1.3,3.6c-0.7,1.1-0.9,2-1.4,2.7c-0.5,0.7-2.2,3.3-2.2,3.3
	s0.4,1.5,0.4,1.8c0,0.3-0.1,0.9-0.8,1.1c-0.7,0.2-1.1,0.2-1.1,0.2s-0.4,3.1-0.9,4.6c-0.3,3-0.4,2-3.7,5.7
	C40.7,47.1,49.5,37.1,49.5,25"/>
</svg>
