<?xml version="1.0" encoding="utf-8"?>
<!-- Generator: Adobe Illustrator 22.1.0, SVG Export Plug-In . SVG Version: 6.00 Build 0)  -->
<svg version="1.1" id="Layer_1" xmlns="http://www.w3.org/2000/svg" xmlns:xlink="http://www.w3.org/1999/xlink" x="0px" y="0px"
	 viewBox="0 0 200 200" style="enable-background:new 0 0 200 200;" xml:space="preserve">
<style type="text/css">
	.st0{fill:#00769C;}
	.st1{fill:#D5176E;}
</style>
<g>
	<g>
		<path class="st0" d="M100,199c-54.6,0-99-44.4-99-99S45.4,1,100,1s99,44.4,99,99S154.6,199,100,199z M100,17.5
			c-45.5,0-82.5,37-82.5,82.5c0,45.5,37,82.5,82.5,82.5c45.5,0,82.5-37,82.5-82.5C182.5,54.5,145.5,17.5,100,17.5z"/>
	</g>
	<g>
		<g>
			<path class="st0" d="M60,65.2c-4.6-1-9.2-2.4-13.8-3.6c-1.3-0.3-2.6-0.4-3.9,0.1c-0.5,0.2-1.2,0.3-1.7,0.2c-2.9-0.4-5,1.1-5.5,4
				c-0.3,2-0.6,4.1-0.7,6.1c-0.2,2.7-0.8,5.3-2.3,7.6c-0.8,1.3-1.4,2.8-1.9,4.3c-0.6,1.6-1,3.3-1.4,5c-1.1,4.2-1.1,8.4,0.8,12.4
				c0.6,1.3,1.1,2.5,0.8,4c-0.2,0.8,0.1,1.8,0.3,2.6c0.4,1.7,0.7,3.5,1.4,5.1c0.5,1.2,1.3,2.4,2.2,3.4c0.7,0.7,1.7,1.2,2.6,1.6
				c1.4,0.6,2.2,1.7,2.5,3c0.8,3,2.9,4.4,5.5,4.7c2.1,0.3,3.8,1.1,5.5,2.2c1.6,1,3.1,1.9,4.7,2.9c2,1.4,4.2,2.4,6.7,2.4
				c2.8,0,5.6,1.7,8.4,0c0.4,0.6,0.7,1.2,1,1.7c0.8,1.3,1.5,2.7,2.5,4c2.8,3.7,6.4,4.7,10.1,2.9c1,1.8,2,3.6,3,5.4
				c1.5,3,3.9,4.8,7.1,5.9c4,1.3,7.7-0.7,7.7-4.9c0-2.5,1.2-3.5,2.8-4.7c0.2-0.2,0.4-0.4,0.6-0.5c2.3-1.5,4.9-1.6,7.1-0.7
				c4.2,1.7,8.2,0.7,10.6-3.2c0.8-1.3,3.6-1.8,4.7-0.7c1.6,1.6,3.5,1.9,5.5,1.1c1-0.4,1.5,0,1.7,1c1.1,5.4,4.4,9.1,9.2,11.4
				c2.5,1.2,5.4,0.2,6.9-2.2c1.1-1.8,1.8-3.8,1.1-5.9c-1.3-4.3-2.2-8.9-5.1-12.6c-0.7-0.9-0.8-1.8-0.2-2.7c1.4-2.2,2.5-4.8,5-6.1
				c0.6-0.3,0.9-1,1.4-1.5s0.9-1,1.4-1.4c2.4-1.5,3.5-3.7,3.7-6.5c0.1-1.1,0-2.1,0.2-3.2c0.5-4.2,1.1-8.3,1.7-12.5
				c0.1-0.5,0.6-1,1.1-1.3c1.6-1,3.4-1.7,4.9-2.8c2.2-1.7,2.6-4.6,1.3-7c-0.3-0.5-0.7-1-1.1-1.5c1.1-1,2.1-1.9,3.1-2.9
				c2.9-2.9,2.8-5.6-0.1-8.5c-0.7-0.7-1.4-1.7-1.7-2.7c-1.8-4.9-6.1-5.4-10-4c-0.8,0.3-1.6,1.3-1.9,2.2c-0.7,1.9-1.1,3.9-1.6,5.8
				c-0.1,0.3-0.2,0.7-0.3,1c-0.7,1.8-1.4,3.6-2.2,5.6c3.7-0.4,6.8-2,7.2-6.1c0.1-1.4,0.4-2.8,0.7-4.1c0.6,0.1,1.1,0.4,1.5,0.2
				c1.5-0.6,1.7-0.6,2.1,1c0.5,1.7,1.4,3.1,2.8,4.3c0.4,0.3,0.6,0.7,1.1,1.1c-0.8,0.7-1.5,1.4-2.1,2c-1.2,1-2.4,2.1-3.5,3.1
				c-1.2,1.1-1.3,2.4-1,3.9c0.3,1.3,1.3,1.4,2.3,1.5s0.9,0.8,0.4,1.3c-0.6,0.5-1.3,0.9-2,1.3c-1.1,0.5-2.2,1-3.3,1.6
				c-1.4,0.8-2.4,1.8-2.2,3.6c0.1,0.6-0.1,1.2-0.2,1.9c-0.6,4.9-1.1,9.9-1.8,14.8c-0.1,1-0.8,2-1.5,2.7c-1.7,1.7-3.7,3-5.2,4.7
				c-1.7,1.9-3.1,4.1-4.3,6.3c-1.4,2.5-1.2,5,0.6,7.4c0.7,1,1.4,2,1.8,3.1c0.9,2.2,1.6,4.4,2.3,6.6c0.2,0.7,0.3,1.6,0.2,2.4
				c-0.3,1.9-1.1,2.2-2.7,1.1c-2.9-2.1-5.2-4.7-5.4-8.6c0-0.8-0.6-2.1-1.2-2.3c-1-0.4-1.7-1-2.4-1.8c-0.5-0.7-1.2-0.9-2-0.4
				s-1.7,0.9-2.6,1.3c-0.8-1.4-2.2-1.9-3.6-1.9c-2.1,0.1-4.2,0.2-6.2,0.6c-0.6,0.1-1.2,0.8-1.6,1.3c-0.6,0.7-0.9,1.7-1.4,2.4
				c-0.9,1.1-3.3,1.3-3.7,0.3c-0.5-1.1-1.3-1-2.1-1c-1.6,0.1-3.1,0.5-4.7,0.4c-4.2-0.1-6.5,3.2-9.6,5.1c-0.3,0.2-0.4,0.6-0.5,0.9
				c-0.2,1.3-0.4,2.7-0.5,4.1c-0.1,0.9-0.2,1.6-1.3,1.3c-1.8-0.5-3.5-1.2-4.5-3.1c-1.3-2.5-2.6-4.9-3.9-7.3
				c-1.5-2.8-3.9-3.4-5.9-1.1c-0.9,1.1-1.7,0.8-2.6,0.2c-1.7-1.1-2.7-2.9-3.5-4.6c-1.3-2.7-3-4.7-6.3-4.7c-1.1,0-1.9-0.2-1.9,1.1
				c-1.2-0.2-2.3-0.4-3.4-0.4c-2.5-0.1-4.8-0.9-6.9-2.3c-2-1.4-4.3-2.6-6.4-4c-1.2-0.8-2.5-1.3-4-1.2c-1.2,0-2.3-0.3-2.5-1.8
				c-0.1-0.4-0.4-0.8-0.7-1.2c-1.7-2-2.9-4.4-5.7-5.2c-0.3-0.1-0.7-0.6-0.8-0.9c-0.3-1.1-0.5-2.3-0.9-3.4c-0.6-1.6-1.2-3-0.7-4.8
				c0.4-1.5,0.1-2.8-1.1-4.1c-0.6-0.6-1-1.7-1.1-2.7c-0.5-2.7-0.5-5.3,0.5-7.9c0.4-1.1,0.6-2.3,1-3.5s0.7-2.4,1.3-3.5
				c1.9-3,2.9-6.2,3.1-9.7c0.1-2,0.5-4,0.7-6.1c2.9,1.2,3.5,1.1,4.9-0.6c0.2,0,0.4,0.1,0.6,0.2c5.8,1.9,11.7,3.3,17.6,4.4
				C65.8,71,69,68,69,68C67,67,61.4,65.5,60,65.2z"/>
			<path class="st0" d="M137,83c2-0.4,5.1,3.9,8-1c3-5,9-4,9-4s1,2-2,3s-4.1,5.6-8,6c-1.6,0.2-3.4,0-5.2-0.3c0,0,0.2,4.3-0.8,4.3
				s-4,2-5,3s-3,0-3-1c0-1.4,0-2.8,0-5c0-3-2-4-2-6s-3.6-3-5-3c-2,0-6-3-6-3s6-1,8,0s3,0,5,1s1,3,2,6s1,6,2,6s2-1,2-3
				C136,84.6,137,83,137,83z"/>
		</g>
	</g>
	<g>
		<path class="st0" d="M74.4,70c-0.6,0-1.2,0-1.9,0c-0.7,0-1.1-0.3-1.1-1.1c0-1.3,0-2.5,0-3.8c0-0.8,0.4-1.1,1.1-1.1
			c1.3,0,2.5,0,3.8,0c2.5,0,5,0,7.4,0c1.4,0,1.5,0.2,1.6,1.6c0,1.1,0,2.2,0,3.3c0,0.8-0.4,1.1-1.1,1.1c-0.6,0-1.3,0-2,0
			c0.1,1.2,0.1,2.2,0.2,3.3c0.4,4.6,1.2,9.1,3.4,13.2c0.3,0.6,0.6,0.8,1.2,0.8c1.4,0.1,2.4,0.7,3.3,2c2.5,3.5,5.7,5.7,10.3,5.7
			c1.9,0,3.9,0.1,5.8,0.4c4.9,0.8,7.7,3.8,8.7,8.7c0.2,1.1,0.3,2.2,0.5,3.4c0.2-0.2,0.4-0.3,0.6-0.5c1.7-1.8,3.5-3.5,5.2-5.3
			c0.9-0.9,1.2-0.9,2.1,0c3.2,3.1,6.3,6.2,9.5,9.3c1.1,1.1,1.1,1.2,0,2.3c-1.7,1.7-3.3,3.5-5.1,5.2c-0.3,0.3-4.2,0.9-4.2,0.9
			l-8.1,3.8c0,0,0.6,10,0.6,19.7c0,0.6-7-3.9-11.2-1s-6.3,11.5-11,11c-5.2-0.6-9.4-12-9.5-12c0-2,1.7-25.9,1.9-27.8
			c0.1-1.7-0.3-3-1.6-4.3c-2.5-2.4-3.5-5.7-4.1-9.1c-0.3-1.6-0.4-3.2-0.6-4.8c0-0.3-0.1-0.7-0.3-1c-3.5-7.3-5.2-15-5.3-23.1
			c0-0.2,0-0.4,0-0.6C74.5,70.3,74.5,70.2,74.4,70"/>
	</g>
	<g>
		<path class="st0" d="M111.9,77.5c-0.7-0.3-1.5-0.4-2.1-0.8c-6.1-4-12.8-3.9-18.7,0.2c-1.4,1-3.5,0.9-4.9-0.2c-1-0.8-1-1.7,0.2-2.2
			c0.9-0.4,1.8-0.5,2.7-0.7c0.6-0.1,1.3-0.1,2-0.2c0.5-0.1,1.2-0.3,1.3-0.6c0.1-0.4-0.1-1-0.4-1.4c-1-1.4-2.1-2.7-3.1-4.2
			c-0.4-0.5-0.6-1.2-0.8-1.8c-0.3-1.1,0.1-1.5,1.2-1.2c0.9,0.3,1.7,0.7,2.5,1.2c1.4,1,2.7,2,3.9,3.1c0.5,0.4,1,0.7,1.6,0.4
			c0.7-0.3,0.8-0.8,0.9-1.5c0.2-1.9,0.4-3.8,0.7-5.7c0.1-0.6,0.4-1.2,0.7-1.8c0.5-0.9,1.3-0.9,1.7,0c0.5,1.1,0.8,2.2,1,3.4
			c0.2,1.3,0.3,2.7,0.4,4c0,0.7,0.2,1.3,0.9,1.6c0.7,0.3,1.2-0.1,1.7-0.5c1.8-1.4,3.6-2.7,5.4-4c0.6-0.4,1.5-0.8,2-0.2
			c0.3,0.4,0.1,1.4-0.3,2c-0.9,1.5-1.9,2.9-2.9,4.3c-0.1,0.2-0.3,0.4-0.5,0.6c-0.6,1-0.3,1.9,0.9,2.1c1.1,0.2,2.2,0.3,3.2,0.5
			c0.6,0.1,1.2,0.4,1.7,0.7c0.7,0.5,0.7,1.1,0.1,1.8C114.4,76.9,113.1,77.4,111.9,77.5"/>
	</g>
	<g>
		<path class="st0" d="M100.8,76.4c2.1,0,4.2,0.5,6.3,1.5c1.1,0.5,1.6,1.3,1.5,2.6c-0.2,2.9-0.7,5.7-2.3,8.2
			c-2.9,4.5-8.8,4.5-11.6,0c-1.7-2.6-2.2-5.5-2.3-8.5c0-0.9,0.5-1.5,1.2-1.9C95.7,77,98.1,76.4,100.8,76.4"/>
	</g>
	<g>
		<path class="st1" d="M77,44.8c1.2,1,2.5,2,3.7,3.1c2,2,3.3,4.3,3.5,7.2c0.3,4.7-4.4,8.1-8.6,6c-3.1-1.5-4.1-5.9-1.8-8.6
			c0.5-0.6,1.1-1.1,1.6-1.6c1.9-1.7,2.3-3.1,1.5-5.5c0-0.1-0.1-0.3-0.1-0.4C76.9,44.9,77,44.8,77,44.8"/>
	</g>
</g>
</svg>
