<?xml version="1.0" encoding="utf-8"?>
<!-- Generator: Adobe Illustrator 22.1.0, SVG Export Plug-In . SVG Version: 6.00 Build 0)  -->
<svg version="1.1" id="Layer_1" xmlns="http://www.w3.org/2000/svg" xmlns:xlink="http://www.w3.org/1999/xlink" x="0px" y="0px"
	 viewBox="0 0 100 100" style="enable-background:new 0 0 100 100;" xml:space="preserve">
<style type="text/css">
	.st0{fill:#8A9197;}
</style>
<g id="YouTube">
	<path class="st0" d="M50,99C23,99,1,77,1,50C1,23,23,1,50,1s49,22,49,49C99,77,77,99,50,99z M50,7.5C26.6,7.5,7.5,26.6,7.5,50
		c0,23.4,19.1,42.5,42.5,42.5s42.5-19,42.5-42.5C92.5,26.6,73.4,7.5,50,7.5z"/>
	<path class="st0" d="M42.7,60.4v-21L61,49.9L42.7,60.4z M71.3,30c-13.3-0.9-29.1-1.1-42.7,0c-4.2,0.5-7.1,5.6-7.4,9.5
		c-0.7,8.2-0.7,12.8,0,21c0.3,3.9,3.1,9.1,7.4,9.6c13.7,0.9,29.5,1,42.7,0c4.2-0.7,7.1-5.7,7.4-9.6c0.7-8.2,0.7-13.4,0-21.5
		C78.4,35,76.1,30.1,71.3,30"/>
</g>
</svg>
