<?xml version="1.0" encoding="utf-8"?>
<!-- Generator: Adobe Illustrator 22.1.0, SVG Export Plug-In . SVG Version: 6.00 Build 0)  -->
<svg version="1.1" id="Layer_1" xmlns="http://www.w3.org/2000/svg" xmlns:xlink="http://www.w3.org/1999/xlink" x="0px" y="0px"
	 viewBox="0 0 60 60" style="enable-background:new 0 0 60 60;" xml:space="preserve">
<style type="text/css">
	.st0{fill:#FF8C06;}
</style>
<path id="Donate__x3D___x23_ff8c06" class="st0" d="M27.7,23.3c0,1.1,0.6,1.4,3.5,2c8.2,1.8,11.3,5,11.3,10.7
	c0,6.8-4.7,9.6-10.4,10.3v4.8h-3.2v-4.7c-5-0.2-8.7-2.1-11.3-4.1l2.2-7.4c2.5,2,5.9,4,10.1,4c1.8,0,3.2-0.4,3.2-1.9
	c0-1.4-1.3-1.8-4.9-2.5c-7.6-1.7-9.8-5.5-9.8-10.2c0-5.8,4.2-9.3,10.6-9.7v-4.4h3.2v4.4c3.5,0.3,6.7,1.6,9,3.1l-2,6.9
	c-2.4-1.4-5.8-2.6-9-2.6C28.6,21.9,27.7,22.4,27.7,23.3 M59.5,30.6C59.5,14.3,46.3,1.1,30,1.1S0.5,14.3,0.5,30.6
	c0,13.6,9.3,24.9,21.8,28.3l7.7-6.7l7.7,6.7C50.2,55.5,59.5,44.2,59.5,30.6"/>
</svg>
