<?xml version="1.0" encoding="utf-8"?>
<!-- Generator: Adobe Illustrator 22.1.0, SVG Export Plug-In . SVG Version: 6.00 Build 0)  -->
<svg version="1.1" id="Layer_1" xmlns="http://www.w3.org/2000/svg" xmlns:xlink="http://www.w3.org/1999/xlink" x="0px" y="0px"
	 viewBox="0 0 50 50" style="enable-background:new 0 0 50 50;" xml:space="preserve">
<style type="text/css">
	.st0{clip-path:url(#SVGID_2_);fill:#0096B4;}
	.st1{fill:#0096B4;}
</style>
<g>
	<defs>
		<rect id="SVGID_1_" x="0.5" y="0.5" width="49" height="49"/>
	</defs>
	<clipPath id="SVGID_2_">
		<use xlink:href="#SVGID_1_"  style="overflow:visible;"/>
	</clipPath>
	<path class="st0" d="M25,49.5c-13.5,0-24.5-11-24.5-24.5c0-13.5,11-24.5,24.5-24.5c13.5,0,24.5,11,24.5,24.5
		C49.5,38.5,38.5,49.5,25,49.5z M25,6.1C14.6,6.1,6.1,14.6,6.1,25c0,10.4,8.5,18.9,18.9,18.9c10.4,0,18.9-8.5,18.9-18.9
		C43.9,14.6,35.4,6.1,25,6.1z"/>
</g>
<path class="st1" d="M9.1,27.1v-5.5h31.9v5.5H9.1z"/>
</svg>
